# xmcd CD database file
#
# Track frame offsets:
#	150
#	13390
#	26890
#	38265
#	51107
#	65965
#	77862
#	90270
#	104115
#	119815
#	139245
#	153565
#	173515
#	192565
#	212217
#
# Disc length: 3077 seconds
#
# Revision: 0
# Processed by: cddbd v1.5.2PL0 Copyright (c) Steve Scherf et al.
# Submitted via: CDex 1.51
#
DISCID=de0c030f
DTITLE=Muggsy Spanier - Muggsy Spanier 1939-44
DYEAR=1940
DGENRE=Jazz
TTITLE0=At the jazz band ball
TTITLE1=Sister Kate
TTITLE2=Dippermouth Blues
TTITLE3=Riverboat Shuffle
TTITLE4=Relaxing at the Touro
TTITLE5=At Sundown
TTITLE6=Blueing the Blues
TTITLE7=Lonesome Road
TTITLE8=Lady be good
TTITLE9=Memphis blues
TTITLE10=Whistling the blues
TTITLE11=Sweet Lorraine
TTITLE12=Four five times
TTITLE13=That's a plenty
TTITLE14=Sweet Sue
EXTD=YEAR: 1940
EXTT0=
EXTT1=
EXTT2=
EXTT3=
EXTT4=
EXTT5=
EXTT6=
EXTT7=
EXTT8=
EXTT9=
EXTT10=
EXTT11=
EXTT12=
EXTT13=
EXTT14=
PLAYORDER=
